<svg xmlns="http://www.w3.org/2000/svg" xmlns:xlink="http://www.w3.org/1999/xlink" width="100" zoomAndPan="magnify" viewBox="0 0 75 74.999997" height="100" preserveAspectRatio="xMidYMid meet" version="1.2"><defs><clipPath id="ad4e75e891"><path d="M 4.035156 32 L 55 32 L 55 43 L 4.035156 43 Z M 4.035156 32 "/></clipPath><clipPath id="528edaf453"><path d="M 4.035156 60 L 38 60 L 38 71 L 4.035156 71 Z M 4.035156 60 "/></clipPath><clipPath id="8d80f7551e"><path d="M 4.035156 3.582031 L 70.785156 3.582031 L 70.785156 14 L 4.035156 14 Z M 4.035156 3.582031 "/></clipPath><clipPath id="ab10362a46"><path d="M 17.25 6.148438 L 39.75 6.148438 L 39.75 11.101562 L 17.25 11.101562 Z M 17.25 6.148438 "/></clipPath></defs><g id="a76c9552c4"><g clip-rule="nonzero" clip-path="url(#ad4e75e891)"><path style=" stroke:none;fill-rule:nonzero;fill:#ffffff;fill-opacity:1;" d="M 49.675781 42.367188 L 9.027344 42.367188 C 6.304688 42.367188 4.035156 40.101562 4.035156 37.378906 C 4.035156 34.65625 6.304688 32.386719 9.027344 32.386719 L 49.765625 32.386719 C 52.488281 32.386719 54.757812 34.65625 54.757812 37.378906 C 54.667969 40.101562 52.488281 42.367188 49.675781 42.367188 Z M 49.675781 42.367188 "/></g><g clip-rule="nonzero" clip-path="url(#528edaf453)"><path style=" stroke:none;fill-rule:nonzero;fill:#ffffff;fill-opacity:1;" d="M 32.074219 70.859375 L 9.027344 70.859375 C 6.304688 70.859375 4.035156 68.59375 4.035156 65.871094 C 4.035156 63.148438 6.304688 60.878906 9.027344 60.878906 L 32.074219 60.878906 C 34.796875 60.878906 37.0625 63.148438 37.0625 65.871094 C 37.0625 68.683594 34.796875 70.859375 32.074219 70.859375 Z M 32.074219 70.859375 "/></g><g clip-rule="nonzero" clip-path="url(#8d80f7551e)"><path style=" stroke:none;fill-rule:nonzero;fill:#ffffff;fill-opacity:1;" d="M 65.554688 13.785156 L 9.027344 13.785156 C 6.304688 13.785156 4.035156 11.519531 4.035156 8.796875 C 4.035156 6.074219 6.304688 3.804688 9.027344 3.804688 L 65.648438 3.804688 C 68.367188 3.804688 70.636719 6.074219 70.636719 8.796875 C 70.546875 11.519531 68.367188 13.785156 65.554688 13.785156 Z M 65.554688 13.785156 "/></g><g clip-rule="nonzero" clip-path="url(#ab10362a46)"><path style=" stroke:none;fill-rule:nonzero;fill:#ffffff;fill-opacity:1;" d="M 17.25 6.148438 L 39.757812 6.148438 L 39.757812 11.101562 L 17.25 11.101562 Z M 17.25 6.148438 "/></g></g></svg>